<svg xmlns="http://www.w3.org/2000/svg"  viewBox="0 0 24 24" width="24px" height="24px" baseProfile="basic"><linearGradient id="b5E-CVb0ZH7lrwiTXFeYQa" x1="12.501" x2="12.501" y1="4" y2="20" gradientUnits="userSpaceOnUse"><stop offset="0" stop-color="#fae500"/><stop offset="1" stop-color="#ffae42"/></linearGradient><path fill="url(#b5E-CVb0ZH7lrwiTXFeYQa)" d="M22,10h-1c-0.55,0-1-0.45-1-1c0-0.83-0.34-1.58-0.88-2.12C18.58,6.34,17.83,6,17,6h-6.15	c-0.41,0-0.82-0.24-0.95-0.63C9.63,4.57,8.88,4,8,4H5C3.34,4,2,5.34,2,7v10c0,1.66,1.34,3,3,3h13.11c1.33,0,2.49-0.87,2.87-2.14	l1.98-6.57C23.15,10.65,22.67,10,22,10z M17,10H8.39c-0.84,0-1.58,0.52-1.88,1.3l-1.34,3.58C4.94,15.51,4,15.34,4,14.66V7	c0-0.55,0.45-1,1-1h2.36c0.35,0,0.69,0.18,0.86,0.49C8.87,7.66,9.56,8,10.85,8H17c0.55,0,1,0.45,1,1S17.55,10,17,10z"/><linearGradient id="b5E-CVb0ZH7lrwiTXFeYQb" x1="11" x2="11" y1="5.638" y2="20.814" gradientUnits="userSpaceOnUse"><stop offset="0" stop-color="#fff"/><stop offset="1" stop-color="#fff266"/></linearGradient><path fill="url(#b5E-CVb0ZH7lrwiTXFeYQb)" d="M18,9c0,0.55-0.45,1-1,1H8.39c-0.84,0-1.58,0.52-1.88,1.3l-1.34,3.58	C4.94,15.51,4,15.34,4,14.66V7c0-0.55,0.45-1,1-1h2.36c0.35,0,0.69,0.18,0.86,0.49C8.87,7.66,9.56,8,10.85,8H17	C17.55,8,18,8.45,18,9z"/></svg>